<mxfile host="Electron" agent="Mozilla/5.0 (Macintosh; Intel Mac OS X 10_15_7) AppleWebKit/537.36 (KHTML, like Gecko) draw.io/27.0.9 Chrome/134.0.6998.205 Electron/35.4.0 Safari/537.36" version="27.0.9">
  <diagram name="Page-1" id="TnLcbnxKhTQtmt_fRVsT">
    <mxGraphModel dx="1426" dy="912" grid="1" gridSize="10" guides="1" tooltips="1" connect="1" arrows="1" fold="1" page="1" pageScale="1" pageWidth="850" pageHeight="1100" math="0" shadow="0">
      <root>
        <mxCell id="0" />
        <mxCell id="1" parent="0" />
        <mxCell id="Jh2IHpoM0chBitL3KO0X-1" value="" style="rounded=0;whiteSpace=wrap;html=1;" vertex="1" parent="1">
          <mxGeometry x="40" y="90" width="1380" height="780" as="geometry" />
        </mxCell>
        <mxCell id="Jh2IHpoM0chBitL3KO0X-2" value="&lt;font style=&quot;font-size: 35px;&quot;&gt;High Level Architecture&lt;/font&gt;" style="rounded=0;whiteSpace=wrap;html=1;" vertex="1" parent="1">
          <mxGeometry x="435" y="60" width="590" height="60" as="geometry" />
        </mxCell>
        <mxCell id="Jh2IHpoM0chBitL3KO0X-3" value="" style="rounded=0;whiteSpace=wrap;html=1;dashed=1;" vertex="1" parent="1">
          <mxGeometry x="90" y="160" width="190" height="670" as="geometry" />
        </mxCell>
        <mxCell id="Jh2IHpoM0chBitL3KO0X-4" value="&lt;font style=&quot;font-size: 24px;&quot;&gt;Sources&lt;/font&gt;" style="rounded=0;whiteSpace=wrap;html=1;strokeColor=none;" vertex="1" parent="1">
          <mxGeometry x="125" y="130" width="120" height="60" as="geometry" />
        </mxCell>
        <mxCell id="Jh2IHpoM0chBitL3KO0X-5" value="" style="rounded=0;whiteSpace=wrap;html=1;dashed=1;" vertex="1" parent="1">
          <mxGeometry x="307.5" y="160" width="852.5" height="670" as="geometry" />
        </mxCell>
        <mxCell id="Jh2IHpoM0chBitL3KO0X-6" value="&lt;font style=&quot;font-size: 24px;&quot;&gt;Data Warehouse&lt;/font&gt;" style="rounded=0;whiteSpace=wrap;html=1;strokeColor=none;" vertex="1" parent="1">
          <mxGeometry x="615" y="130" width="230" height="60" as="geometry" />
        </mxCell>
        <mxCell id="Jh2IHpoM0chBitL3KO0X-7" value="" style="rounded=0;whiteSpace=wrap;html=1;dashed=1;" vertex="1" parent="1">
          <mxGeometry x="1190" y="160" width="190" height="670" as="geometry" />
        </mxCell>
        <mxCell id="Jh2IHpoM0chBitL3KO0X-8" value="&lt;font style=&quot;font-size: 24px;&quot;&gt;Consumers&lt;/font&gt;" style="rounded=0;whiteSpace=wrap;html=1;strokeColor=none;" vertex="1" parent="1">
          <mxGeometry x="1225" y="130" width="120" height="60" as="geometry" />
        </mxCell>
        <mxCell id="Jh2IHpoM0chBitL3KO0X-9" value="" style="image;aspect=fixed;html=1;points=[];align=center;fontSize=12;image=img/lib/azure2/general/Folder_Blank.svg;" vertex="1" parent="1">
          <mxGeometry x="140" y="300" width="69" height="56.00000000000001" as="geometry" />
        </mxCell>
        <mxCell id="Jh2IHpoM0chBitL3KO0X-10" value="" style="image;aspect=fixed;html=1;points=[];align=center;fontSize=12;image=img/lib/azure2/general/File.svg;" vertex="1" parent="1">
          <mxGeometry x="190" y="330" width="32.46" height="40" as="geometry" />
        </mxCell>
        <mxCell id="Jh2IHpoM0chBitL3KO0X-11" value="&lt;font style=&quot;font-size: 24px;&quot;&gt;CRM&lt;/font&gt;" style="rounded=0;whiteSpace=wrap;html=1;strokeColor=none;" vertex="1" parent="1">
          <mxGeometry x="140" y="370" width="80" height="60" as="geometry" />
        </mxCell>
        <mxCell id="Jh2IHpoM0chBitL3KO0X-12" value="" style="image;aspect=fixed;html=1;points=[];align=center;fontSize=12;image=img/lib/azure2/general/Folder_Blank.svg;" vertex="1" parent="1">
          <mxGeometry x="137.54" y="500" width="69" height="56.00000000000001" as="geometry" />
        </mxCell>
        <mxCell id="Jh2IHpoM0chBitL3KO0X-13" value="" style="image;aspect=fixed;html=1;points=[];align=center;fontSize=12;image=img/lib/azure2/general/File.svg;" vertex="1" parent="1">
          <mxGeometry x="187.54" y="530" width="32.46" height="40" as="geometry" />
        </mxCell>
        <mxCell id="Jh2IHpoM0chBitL3KO0X-14" value="&lt;font style=&quot;font-size: 24px;&quot;&gt;ERP&lt;/font&gt;" style="rounded=0;whiteSpace=wrap;html=1;strokeColor=none;" vertex="1" parent="1">
          <mxGeometry x="137.54" y="570" width="80" height="60" as="geometry" />
        </mxCell>
        <mxCell id="Jh2IHpoM0chBitL3KO0X-16" value="" style="endArrow=none;dashed=1;html=1;dashPattern=1 3;strokeWidth=2;rounded=0;strokeColor=default;" edge="1" parent="1">
          <mxGeometry width="50" height="50" relative="1" as="geometry">
            <mxPoint x="110" y="630" as="sourcePoint" />
            <mxPoint x="260" y="630" as="targetPoint" />
          </mxGeometry>
        </mxCell>
        <mxCell id="Jh2IHpoM0chBitL3KO0X-18" value="Object Type: CSV Files" style="rounded=0;whiteSpace=wrap;html=1;strokeColor=none;" vertex="1" parent="1">
          <mxGeometry x="110" y="650" width="150" height="60" as="geometry" />
        </mxCell>
        <mxCell id="Jh2IHpoM0chBitL3KO0X-20" value="" style="shape=flexArrow;endArrow=classic;html=1;rounded=0;fillColor=#1ba1e2;strokeColor=none;strokeWidth=1;" edge="1" parent="1">
          <mxGeometry width="50" height="50" relative="1" as="geometry">
            <mxPoint x="260" y="460" as="sourcePoint" />
            <mxPoint x="330" y="460" as="targetPoint" />
          </mxGeometry>
        </mxCell>
        <mxCell id="Jh2IHpoM0chBitL3KO0X-22" value="" style="rounded=0;whiteSpace=wrap;html=1;fillColor=none;strokeColor=light-dark(#000000,#756249);strokeWidth=1;" vertex="1" parent="1">
          <mxGeometry x="350" y="240" width="200" height="560" as="geometry" />
        </mxCell>
        <mxCell id="Jh2IHpoM0chBitL3KO0X-23" value="&lt;font style=&quot;font-size: 20px;&quot;&gt;Bronze Layer&lt;/font&gt;" style="rounded=0;whiteSpace=wrap;html=1;fillColor=#756249;strokeColor=light-dark(#b46504, #756249);" vertex="1" parent="1">
          <mxGeometry x="350" y="200" width="200" height="30" as="geometry" />
        </mxCell>
        <mxCell id="Jh2IHpoM0chBitL3KO0X-24" value="Stored Procedure" style="rounded=0;whiteSpace=wrap;html=1;fillColor=none;strokeColor=none;" vertex="1" parent="1">
          <mxGeometry x="370" y="250" width="160" height="30" as="geometry" />
        </mxCell>
        <mxCell id="Jh2IHpoM0chBitL3KO0X-26" value="" style="sketch=0;outlineConnect=0;fontColor=#232F3E;gradientColor=none;fillColor=#8CBDF5;strokeColor=default;dashed=0;verticalLabelPosition=bottom;verticalAlign=top;align=center;html=1;fontSize=12;fontStyle=0;aspect=fixed;pointerEvents=1;shape=mxgraph.aws4.source_code;" vertex="1" parent="1">
          <mxGeometry x="435.38" y="280" width="29.23" height="40" as="geometry" />
        </mxCell>
        <mxCell id="Jh2IHpoM0chBitL3KO0X-27" value="" style="html=1;verticalLabelPosition=bottom;align=center;labelBackgroundColor=#ffffff;verticalAlign=top;strokeWidth=2;strokeColor=light-dark(#000000,#756249);shadow=0;dashed=0;shape=mxgraph.ios7.icons.data;fillColor=none;" vertex="1" parent="1">
          <mxGeometry x="424" y="356" width="52" height="64" as="geometry" />
        </mxCell>
        <mxCell id="Jh2IHpoM0chBitL3KO0X-28" value="" style="endArrow=classic;html=1;rounded=0;dashed=1;dashPattern=8 8;strokeColor=#A3A3A3;" edge="1" parent="1" source="Jh2IHpoM0chBitL3KO0X-26">
          <mxGeometry width="50" height="50" relative="1" as="geometry">
            <mxPoint x="710" y="520" as="sourcePoint" />
            <mxPoint x="450" y="360" as="targetPoint" />
          </mxGeometry>
        </mxCell>
        <mxCell id="Jh2IHpoM0chBitL3KO0X-29" value="" style="endArrow=none;dashed=1;html=1;dashPattern=1 3;strokeWidth=2;rounded=0;strokeColor=default;" edge="1" parent="1">
          <mxGeometry width="50" height="50" relative="1" as="geometry">
            <mxPoint x="370" y="494.5" as="sourcePoint" />
            <mxPoint x="520" y="494.5" as="targetPoint" />
          </mxGeometry>
        </mxCell>
        <mxCell id="Jh2IHpoM0chBitL3KO0X-30" value="Raw Data" style="text;html=1;align=center;verticalAlign=middle;whiteSpace=wrap;rounded=0;" vertex="1" parent="1">
          <mxGeometry x="420" y="430" width="60" height="30" as="geometry" />
        </mxCell>
        <mxCell id="Jh2IHpoM0chBitL3KO0X-31" value="&lt;font style=&quot;font-size: 13px;&quot;&gt;Object Type: Tables&lt;/font&gt;&lt;div&gt;&lt;span style=&quot;background-color: transparent; color: light-dark(rgb(0, 0, 0), rgb(255, 255, 255));&quot;&gt;&lt;font style=&quot;font-size: 13px;&quot;&gt;&lt;br&gt;&lt;/font&gt;&lt;/span&gt;&lt;/div&gt;&lt;div&gt;&lt;span style=&quot;background-color: transparent; color: light-dark(rgb(0, 0, 0), rgb(255, 255, 255));&quot;&gt;&lt;font style=&quot;font-size: 13px;&quot;&gt;Load:&lt;/font&gt;&lt;/span&gt;&lt;div&gt;&lt;ul&gt;&lt;li&gt;&lt;font style=&quot;font-size: 13px;&quot;&gt;Batch Processing&lt;/font&gt;&lt;/li&gt;&lt;li&gt;&lt;font style=&quot;font-size: 13px;&quot;&gt;Full load&lt;/font&gt;&lt;/li&gt;&lt;li&gt;&lt;font style=&quot;font-size: 13px;&quot;&gt;Truncate &amp;amp; Insert&lt;/font&gt;&lt;/li&gt;&lt;/ul&gt;&lt;div&gt;&lt;span style=&quot;font-size: 13px;&quot;&gt;No Transformations&lt;/span&gt;&lt;/div&gt;&lt;/div&gt;&lt;/div&gt;&lt;div&gt;&lt;span style=&quot;font-size: 13px;&quot;&gt;&lt;br&gt;&lt;/span&gt;&lt;/div&gt;&lt;div&gt;&lt;span style=&quot;font-size: 13px;&quot;&gt;Data Model: None (AS-IS)&lt;/span&gt;&lt;/div&gt;" style="text;html=1;align=left;verticalAlign=middle;whiteSpace=wrap;rounded=0;" vertex="1" parent="1">
          <mxGeometry x="360" y="500" width="180" height="190" as="geometry" />
        </mxCell>
        <mxCell id="Jh2IHpoM0chBitL3KO0X-32" value="" style="shape=flexArrow;endArrow=classic;html=1;rounded=0;fillColor=#1ba1e2;strokeColor=none;strokeWidth=1;" edge="1" parent="1">
          <mxGeometry width="50" height="50" relative="1" as="geometry">
            <mxPoint x="560" y="460" as="sourcePoint" />
            <mxPoint x="620" y="460" as="targetPoint" />
          </mxGeometry>
        </mxCell>
        <mxCell id="Jh2IHpoM0chBitL3KO0X-33" value="" style="rounded=0;whiteSpace=wrap;html=1;fillColor=none;strokeColor=light-dark(#000000,#9E9E9E);strokeWidth=1;" vertex="1" parent="1">
          <mxGeometry x="630" y="240" width="200" height="560" as="geometry" />
        </mxCell>
        <mxCell id="Jh2IHpoM0chBitL3KO0X-34" value="&lt;font style=&quot;font-size: 20px;&quot;&gt;Silver Layer&lt;/font&gt;" style="rounded=0;whiteSpace=wrap;html=1;fillColor=light-dark(#000000,#9E9E9E);" vertex="1" parent="1">
          <mxGeometry x="630" y="200" width="200" height="30" as="geometry" />
        </mxCell>
        <mxCell id="Jh2IHpoM0chBitL3KO0X-35" value="Stored Procedure" style="rounded=0;whiteSpace=wrap;html=1;fillColor=none;strokeColor=none;" vertex="1" parent="1">
          <mxGeometry x="650" y="250" width="160" height="30" as="geometry" />
        </mxCell>
        <mxCell id="Jh2IHpoM0chBitL3KO0X-36" value="" style="sketch=0;outlineConnect=0;fontColor=#232F3E;gradientColor=none;fillColor=#8CBDF5;strokeColor=default;dashed=0;verticalLabelPosition=bottom;verticalAlign=top;align=center;html=1;fontSize=12;fontStyle=0;aspect=fixed;pointerEvents=1;shape=mxgraph.aws4.source_code;" vertex="1" parent="1">
          <mxGeometry x="715.38" y="280" width="29.23" height="40" as="geometry" />
        </mxCell>
        <mxCell id="Jh2IHpoM0chBitL3KO0X-37" value="" style="html=1;verticalLabelPosition=bottom;align=center;labelBackgroundColor=#ffffff;verticalAlign=top;strokeWidth=2;strokeColor=light-dark(#000000,#9E9E9E);shadow=0;dashed=0;shape=mxgraph.ios7.icons.data;fillColor=none;" vertex="1" parent="1">
          <mxGeometry x="704" y="356" width="52" height="64" as="geometry" />
        </mxCell>
        <mxCell id="Jh2IHpoM0chBitL3KO0X-38" value="" style="endArrow=classic;html=1;rounded=0;dashed=1;dashPattern=8 8;strokeColor=#A3A3A3;" edge="1" parent="1" source="Jh2IHpoM0chBitL3KO0X-36">
          <mxGeometry width="50" height="50" relative="1" as="geometry">
            <mxPoint x="990" y="520" as="sourcePoint" />
            <mxPoint x="730" y="360" as="targetPoint" />
          </mxGeometry>
        </mxCell>
        <mxCell id="Jh2IHpoM0chBitL3KO0X-39" value="" style="endArrow=none;dashed=1;html=1;dashPattern=1 3;strokeWidth=2;rounded=0;strokeColor=default;" edge="1" parent="1">
          <mxGeometry width="50" height="50" relative="1" as="geometry">
            <mxPoint x="655" y="494.5" as="sourcePoint" />
            <mxPoint x="805" y="494.5" as="targetPoint" />
          </mxGeometry>
        </mxCell>
        <mxCell id="Jh2IHpoM0chBitL3KO0X-40" value="Cleaned, Standardized Data" style="text;html=1;align=center;verticalAlign=middle;whiteSpace=wrap;rounded=0;" vertex="1" parent="1">
          <mxGeometry x="655" y="430" width="150" height="30" as="geometry" />
        </mxCell>
        <mxCell id="Jh2IHpoM0chBitL3KO0X-41" value="&lt;font style=&quot;font-size: 13px;&quot;&gt;Object Type: Tables&lt;/font&gt;&lt;div&gt;&lt;span style=&quot;background-color: transparent; color: light-dark(rgb(0, 0, 0), rgb(255, 255, 255));&quot;&gt;&lt;font style=&quot;font-size: 13px;&quot;&gt;&lt;br&gt;&lt;/font&gt;&lt;/span&gt;&lt;/div&gt;&lt;div&gt;&lt;span style=&quot;background-color: transparent; color: light-dark(rgb(0, 0, 0), rgb(255, 255, 255));&quot;&gt;&lt;font style=&quot;font-size: 13px;&quot;&gt;Load:&lt;/font&gt;&lt;/span&gt;&lt;div&gt;&lt;ul&gt;&lt;li&gt;&lt;font style=&quot;font-size: 13px;&quot;&gt;Batch Processing&lt;/font&gt;&lt;/li&gt;&lt;li&gt;&lt;font style=&quot;font-size: 13px;&quot;&gt;Full load&lt;/font&gt;&lt;/li&gt;&lt;li&gt;&lt;font style=&quot;font-size: 13px;&quot;&gt;Truncate &amp;amp; Insert&lt;/font&gt;&lt;/li&gt;&lt;/ul&gt;&lt;div&gt;&lt;span style=&quot;font-size: 13px;&quot;&gt;Transformations&lt;/span&gt;&lt;/div&gt;&lt;/div&gt;&lt;/div&gt;&lt;div&gt;&lt;ul&gt;&lt;li&gt;&lt;span style=&quot;font-size: 13px;&quot;&gt;Data cleansing&lt;/span&gt;&lt;/li&gt;&lt;li&gt;&lt;span style=&quot;font-size: 13px;&quot;&gt;Data Standardization&lt;/span&gt;&lt;/li&gt;&lt;li&gt;&lt;span style=&quot;font-size: 13px;&quot;&gt;Normalization&lt;/span&gt;&lt;/li&gt;&lt;li&gt;&lt;span style=&quot;font-size: 13px;&quot;&gt;Derived Columns&lt;/span&gt;&lt;/li&gt;&lt;li&gt;&lt;span style=&quot;font-size: 13px;&quot;&gt;Data Enrichment&lt;/span&gt;&lt;/li&gt;&lt;/ul&gt;&lt;/div&gt;&lt;div&gt;&lt;span style=&quot;font-size: 13px;&quot;&gt;&lt;br&gt;&lt;/span&gt;&lt;/div&gt;&lt;div&gt;&lt;span style=&quot;font-size: 13px;&quot;&gt;Data Model: None (AS-IS)&lt;/span&gt;&lt;/div&gt;" style="text;html=1;align=left;verticalAlign=middle;whiteSpace=wrap;rounded=0;" vertex="1" parent="1">
          <mxGeometry x="643.75" y="500" width="180" height="290" as="geometry" />
        </mxCell>
        <mxCell id="Jh2IHpoM0chBitL3KO0X-43" value="" style="shape=flexArrow;endArrow=classic;html=1;rounded=0;fillColor=#1ba1e2;strokeColor=none;strokeWidth=1;" edge="1" parent="1">
          <mxGeometry width="50" height="50" relative="1" as="geometry">
            <mxPoint x="840" y="460" as="sourcePoint" />
            <mxPoint x="900" y="460" as="targetPoint" />
          </mxGeometry>
        </mxCell>
        <mxCell id="Jh2IHpoM0chBitL3KO0X-44" value="" style="rounded=0;whiteSpace=wrap;html=1;fillColor=none;strokeColor=light-dark(#000000,#EEDD5E);strokeWidth=1;" vertex="1" parent="1">
          <mxGeometry x="920" y="240" width="200" height="560" as="geometry" />
        </mxCell>
        <mxCell id="Jh2IHpoM0chBitL3KO0X-45" value="&lt;font style=&quot;font-size: 20px;&quot;&gt;Gold Layer&lt;/font&gt;" style="rounded=0;whiteSpace=wrap;html=1;fillColor=light-dark(#e3c800, #eedd5d);strokeColor=#B09500;fontColor=#000000;" vertex="1" parent="1">
          <mxGeometry x="920" y="200" width="200" height="30" as="geometry" />
        </mxCell>
        <mxCell id="Jh2IHpoM0chBitL3KO0X-46" value="" style="html=1;verticalLabelPosition=bottom;align=center;labelBackgroundColor=#ffffff;verticalAlign=top;strokeWidth=2;strokeColor=light-dark(#000000, #eedd5e);shadow=0;dashed=0;shape=mxgraph.ios7.icons.data;fillColor=none;" vertex="1" parent="1">
          <mxGeometry x="994" y="356" width="52" height="64" as="geometry" />
        </mxCell>
        <mxCell id="Jh2IHpoM0chBitL3KO0X-47" value="" style="endArrow=none;dashed=1;html=1;dashPattern=1 3;strokeWidth=2;rounded=0;strokeColor=default;" edge="1" parent="1">
          <mxGeometry width="50" height="50" relative="1" as="geometry">
            <mxPoint x="945" y="494.5" as="sourcePoint" />
            <mxPoint x="1095" y="494.5" as="targetPoint" />
          </mxGeometry>
        </mxCell>
        <mxCell id="Jh2IHpoM0chBitL3KO0X-48" value="Business-Ready Data" style="text;html=1;align=center;verticalAlign=middle;whiteSpace=wrap;rounded=0;" vertex="1" parent="1">
          <mxGeometry x="945" y="430" width="150" height="30" as="geometry" />
        </mxCell>
        <mxCell id="Jh2IHpoM0chBitL3KO0X-49" value="&lt;font style=&quot;font-size: 13px;&quot;&gt;Object Type: Views&lt;/font&gt;&lt;div&gt;&lt;span style=&quot;background-color: transparent; color: light-dark(rgb(0, 0, 0), rgb(255, 255, 255));&quot;&gt;&lt;font style=&quot;font-size: 13px;&quot;&gt;&lt;br&gt;&lt;/font&gt;&lt;/span&gt;&lt;/div&gt;&lt;div&gt;&lt;span style=&quot;background-color: transparent; color: light-dark(rgb(0, 0, 0), rgb(255, 255, 255));&quot;&gt;&lt;font style=&quot;font-size: 13px;&quot;&gt;No Load&lt;/font&gt;&lt;/span&gt;&lt;/div&gt;&lt;div&gt;&lt;span style=&quot;font-size: 13px;&quot;&gt;&lt;br&gt;&lt;/span&gt;&lt;div&gt;&lt;div&gt;&lt;span style=&quot;font-size: 13px;&quot;&gt;Transformations&lt;/span&gt;&lt;/div&gt;&lt;/div&gt;&lt;/div&gt;&lt;div&gt;&lt;ul&gt;&lt;li&gt;&lt;span style=&quot;font-size: 13px;&quot;&gt;Data Integrations&lt;/span&gt;&lt;/li&gt;&lt;li&gt;&lt;span style=&quot;font-size: 13px;&quot;&gt;Aggregations&lt;/span&gt;&lt;/li&gt;&lt;li&gt;&lt;span style=&quot;font-size: 13px;&quot;&gt;Business Logics&lt;/span&gt;&lt;/li&gt;&lt;/ul&gt;&lt;/div&gt;&lt;div&gt;&lt;span style=&quot;font-size: 13px;&quot;&gt;Data Model:&amp;nbsp;&lt;/span&gt;&lt;/div&gt;&lt;div&gt;&lt;ul&gt;&lt;li&gt;&lt;span style=&quot;font-size: 13px;&quot;&gt;Star Schema&lt;/span&gt;&lt;/li&gt;&lt;li&gt;&lt;span style=&quot;font-size: 13px;&quot;&gt;Flat Table&lt;/span&gt;&lt;/li&gt;&lt;li&gt;&lt;span style=&quot;font-size: 13px;&quot;&gt;Aggregated Table&lt;/span&gt;&lt;/li&gt;&lt;/ul&gt;&lt;/div&gt;" style="text;html=1;align=left;verticalAlign=middle;whiteSpace=wrap;rounded=0;" vertex="1" parent="1">
          <mxGeometry x="933.75" y="500" width="180" height="290" as="geometry" />
        </mxCell>
        <mxCell id="Jh2IHpoM0chBitL3KO0X-50" value="" style="shape=flexArrow;endArrow=classic;html=1;rounded=0;fillColor=#1ba1e2;strokeColor=none;strokeWidth=1;" edge="1" parent="1">
          <mxGeometry width="50" height="50" relative="1" as="geometry">
            <mxPoint x="1140" y="460" as="sourcePoint" />
            <mxPoint x="1210" y="460" as="targetPoint" />
          </mxGeometry>
        </mxCell>
        <mxCell id="Jh2IHpoM0chBitL3KO0X-51" value="" style="image;aspect=fixed;html=1;points=[];align=center;fontSize=12;image=img/lib/azure2/analytics/Power_BI_Embedded.svg;" vertex="1" parent="1">
          <mxGeometry x="1259.5" y="262" width="51" height="68" as="geometry" />
        </mxCell>
        <mxCell id="Jh2IHpoM0chBitL3KO0X-52" value="" style="verticalLabelPosition=bottom;aspect=fixed;html=1;shape=mxgraph.salesforce.analytics;" vertex="1" parent="1">
          <mxGeometry x="1285" y="298.6" width="60" height="58.8" as="geometry" />
        </mxCell>
        <mxCell id="Jh2IHpoM0chBitL3KO0X-53" value="Analytics &amp;amp; Reporting" style="text;html=1;align=center;verticalAlign=middle;whiteSpace=wrap;rounded=0;" vertex="1" parent="1">
          <mxGeometry x="1220" y="385" width="130" height="30" as="geometry" />
        </mxCell>
        <mxCell id="Jh2IHpoM0chBitL3KO0X-54" value="" style="shadow=0;dashed=0;html=1;strokeColor=none;fillColor=#4495D1;labelPosition=center;verticalLabelPosition=bottom;verticalAlign=top;align=center;outlineConnect=0;shape=mxgraph.veeam.2d.search;" vertex="1" parent="1">
          <mxGeometry x="1262.6" y="455.2" width="44.8" height="44.8" as="geometry" />
        </mxCell>
        <mxCell id="Jh2IHpoM0chBitL3KO0X-55" value="Ad-Hoc SQL Queries" style="text;html=1;align=center;verticalAlign=middle;whiteSpace=wrap;rounded=0;" vertex="1" parent="1">
          <mxGeometry x="1220" y="513" width="130" height="30" as="geometry" />
        </mxCell>
        <mxCell id="Jh2IHpoM0chBitL3KO0X-56" value="" style="points=[];aspect=fixed;html=1;align=center;shadow=0;dashed=0;fillColor=#FF6A00;strokeColor=none;shape=mxgraph.alibaba_cloud.machine_learning;" vertex="1" parent="1">
          <mxGeometry x="1247.6999999999998" y="562.47" width="74.6" height="75.05" as="geometry" />
        </mxCell>
        <mxCell id="Jh2IHpoM0chBitL3KO0X-57" value="Machine Learning" style="text;html=1;align=center;verticalAlign=middle;whiteSpace=wrap;rounded=0;" vertex="1" parent="1">
          <mxGeometry x="1220" y="660" width="130" height="30" as="geometry" />
        </mxCell>
        <mxCell id="Jh2IHpoM0chBitL3KO0X-58" value="" style="image;aspect=fixed;html=1;points=[];align=center;fontSize=12;image=img/lib/azure2/databases/SQL_Server.svg;" vertex="1" parent="1">
          <mxGeometry x="307.5" y="130" width="30" height="30" as="geometry" />
        </mxCell>
        <mxCell id="Jh2IHpoM0chBitL3KO0X-59" value="Azure SQL Server" style="text;html=1;align=center;verticalAlign=middle;whiteSpace=wrap;rounded=0;" vertex="1" parent="1">
          <mxGeometry x="337.5" y="130" width="142.5" height="30" as="geometry" />
        </mxCell>
      </root>
    </mxGraphModel>
  </diagram>
</mxfile>
